<?xml version="1.0" encoding="UTF-8" standalone="no"?>
<!-- Created with Inkscape (http://www.inkscape.org/) -->

<svg
   version="1.1"
   id="svg1"
   width="1450"
   height="1150"
   viewBox="0 0 1450 1150"
   sodipodi:docname="logo.svg"
   inkscape:version="1.4.2 (f4327f4, 2025-05-13)"
   xmlns:inkscape="http://www.inkscape.org/namespaces/inkscape"
   xmlns:sodipodi="http://sodipodi.sourceforge.net/DTD/sodipodi-0.dtd"
   xmlns="http://www.w3.org/2000/svg"
   xmlns:svg="http://www.w3.org/2000/svg">
  <defs
     id="defs1" />
  <sodipodi:namedview
     id="namedview1"
     pagecolor="#ffffff"
     bordercolor="#000000"
     borderopacity="0.25"
     inkscape:showpageshadow="2"
     inkscape:pageopacity="0.0"
     inkscape:pagecheckerboard="false"
     inkscape:deskcolor="#d1d1d1"
     showgrid="false"
     inkscape:zoom="0.41177326"
     inkscape:cx="218.56689"
     inkscape:cy="746.7702"
     inkscape:window-width="1816"
     inkscape:window-height="1211"
     inkscape:window-x="2742"
     inkscape:window-y="104"
     inkscape:window-maximized="0"
     inkscape:current-layer="g1"
     showborder="false"
     inkscape:antialias-rendering="true" />
  <g
     inkscape:groupmode="layer"
     inkscape:label="Image"
     id="g1"
     style="display:inline">
    <path
       style="fill:#10b981;stroke:none;stroke-width:1.15948"
       d="m 561.94538,489.3269 c 0.4158,5.09057 2.04144,9.96523 2.27331,15.07329 1.10249,24.28503 -0.8291,48.73794 -0.67365,73.04746 0.17271,27.01156 1.67285,54.13091 0.67727,81.163 -2.9467,80.00932 -1.744,163.28606 31.70951,237.69498 19.68858,43.79232 45.92974,84.87592 80.80243,118.22167 19.10947,18.2727 40.39941,33.1152 62.61211,47.231 59.32042,37.6969 129.83781,59.1812 199.43112,66.6362 106.79752,11.4407 220.25392,-5.7381 311.90082,-64.7735 35.7294,-23.0155 67.1586,-52.7539 93.3261,-86.15155 68.4556,-87.37058 95.8822,-203.69627 85.4313,-313.06053 -5.9326,-62.08206 -20.4616,-122.15263 -50.4126,-177.40099 -40.3681,-74.46405 -106.1864,-135.31655 -184,-168.89451 -34.7391,-14.99064 -71.6729,-26.47252 -108.9914,-32.34658 -4.626,-0.72814 -13.7947,-2.30838 -18.4215,-2.86944 -8.5922,-1.04201 -12.2171,-1.57225 -21.0009,-2.17379 -18.7628,-1.28489 -38.0058,-0.10377 -56.81458,-0.10377 H 875.00593 c -19.13989,0 -38.8991,1.425 -57.97417,-0.1083 -4.32641,-0.34776 -8.42027,-1.83271 -12.75432,-2.21069 V 125.24905 84.667129 c 0,-9.56694 0.52971,-18.9944 -3.79607,-27.82761 C 794.72663,45.088299 782.95296,35.08874 769.49293,33.7715 754.32134,32.286769 738.3604,33.64985 723.11359,33.64985 h -90.43972 c -20.33513,0 -41.31912,-2.797151 -56.79771,13.296479 -14.62195,15.20294 -11.61182,35.8152 -11.61182,55.113051 0,39.8811 -0.0613,79.64081 0,119.4268 v 40.58192 c -3.1e-4,4.85067 0.9952,11.72003 -2.91481,15.41772 -3.15701,2.98562 -8.09317,3.07966 -12.15847,3.12955 -8.1138,0.0996 -16.23469,0.005 -24.34916,0.005 -27.35584,0 -54.99655,1.16147 -82.32332,-0.0457 -5.87024,-0.25944 -11.51128,-2.02032 -17.3923,-2.27346 V 122.93045 c 0,-21.54591 4.81453,-50.219631 -6.41113,-69.569021 C 407.69681,34.36952 388.79491,33.65021 369.47107,33.65021 H 241.92793 c -20.8276,0 -42.0568,-1.198611 -55.1685,18.568729 -10.7246,16.16851 -7.4436,37.22916 -7.4436,55.638211 v 115.94836 c 0,11.90714 -0.7096,24.06445 0.1043,35.94399 0.3843,5.61143 1.16114,11.54243 -1.1916,17.40496 -0.74678,1.86081 -6.9276,3.44593 -10.507,3.46483 l -24.3492,9.1e-4 H 50.613714 c -13.9765,0 -29.179431,0.74609 -33.2663,17.39225 -3.853631,15.69617 -3.094826,30.07627 -3.624095,44.96299 -0.529268,14.88672 0.339081,27.71231 0.343076,44.31725 0.004,16.60494 -0.429213,37.89247 0.358559,56.81469 0.403108,9.68262 1.050265,19.36438 2.233665,28.98709 0.8146,6.62336 3.59633,10.47088 10.59753,13.34531 9.8358,4.03823 23.26027,2.88746 33.79287,2.88746 h 80.004311 c 9.2753,0 18.5529,-0.063 27.8277,9.1e-4 4.1987,0.029 8.491,-0.0261 9.9335,4.70503 3.4877,11.43872 0.5019,25.24411 0.5019,37.03547 v 80.00402 135.65958 c 0,50.36874 -3.18969,102.27049 6.33161,151.89234 13.7804,71.82046 52.70239,139.28661 115.41409,178.61861 28.49482,17.8715 60.94842,30.3078 93.91816,37.0408 42.82678,8.746 87.33087,13.0718 131.02168,9.4646 9.27261,-0.7656 18.53862,-0.6103 27.82761,-1.5398 32.97097,-3.2987 65.65179,-11.5226 96.23713,-24.1405 12.51484,-5.163 27.39089,-9.9708 38.09028,-18.5115 5.22002,-4.1669 1.9136,-8.422 -2.16865,-11.874 -9.39851,-7.9475 -19.69905,-14.6272 -28.96472,-22.7835 -28.39221,-24.9928 -52.16155,-54.64055 -71.42098,-87.14105 -5.75194,-9.7064 -10.91477,-19.7823 -15.36585,-30.1466 -2.25995,-5.26219 -3.92507,-12.78642 -7.88377,-17.02366 -3.80536,-4.07305 -9.51605,-2.1821 -14.32087,-1.72486 -9.86014,0.93834 -21.47366,1.20612 -31.30605,-0.0178 -26.99829,-3.36095 -56.3515,-21.44511 -71.47107,-43.84571 -21.78716,-32.27899 -20.12817,-71.89039 -20.12817,-108.99145 V 580.9261 514.83554 c 0,-5.719 -2.47909,-19.31131 1.85912,-23.64954 2.40117,-2.40119 6.65238,-1.85274 9.73576,-1.8591 h 25.50864 99.71557 m 245.15384,0.69962 c 2.7501,-1.39578 6.95188,-0.69941 9.93255,-0.69962 h 19.71122 73.04746 c 65.45083,0 130.54758,-3.01505 188.99558,31.83123 11.7657,7.01459 22.4569,15.94078 32.5112,25.19733 36.7716,33.85381 54.6348,82.14697 59.2849,130.80777 3.6251,37.93473 0.3295,77.41747 -11.441,113.62939 -6.3041,19.39481 -17.6515,36.68473 -30.4812,52.21795 -16.5113,19.99062 -36.0032,38.93534 -59.1497,51.17828 -20.6409,10.91764 -43.9118,19.96287 -67.2501,22.77361 C 939.7322,926.90195 855.70759,885.45754 820.87221,808.18488 799.1379,759.97325 804.27802,705.4277 804.27802,653.97356 V 529.90882 500.92173 c 0.006,-3.3546 -0.81378,-9.05004 2.82177,-10.89521 z"
       id="path1"
       sodipodi:nodetypes="csssssssscsssssssssccsssssssccsssccssssssscsccsszzassssssscscssscsssssssscsscsscccsccssssssssssccs" />
  </g>
</svg>
